<svg class="svg-icon" style="width: 1em; height: 1em;vertical-align: middle;fill: currentColor;overflow: hidden;" viewBox="0 0 1024 1024" version="1.1" xmlns="http://www.w3.org/2000/svg"><path d="M922.1 690.9c-3.7-6.5-9.4-11.1-15.8-13.7l-114.4-66 118.3-68.3c15.3-8.8 20.5-28.4 11.7-43.7-3.1-5.4-7.5-9.5-12.6-12.2l-117.2-67.7 114.4-66.1c6.7-2.5 12.5-7.3 16.4-13.9 8.8-15.3 3.6-34.9-11.7-43.7L529.1 75c-4.9-2.8-10.2-4.2-15.4-4.3h-1.4c-5.2 0.1-10.5 1.5-15.4 4.3L118.5 293.5c-6.7 2.5-12.5 7.3-16.4 13.9-8.8 15.3-3.6 34.9 11.7 43.7l117.4 67.8L114 486.7c-8.7 5-14.1 13.5-15.6 22.7-2.4 12.9 3.4 26.5 15.5 33.5l117.7 67.9L114 678.7c-12 6.9-17.8 20.5-15.5 33.4 1.5 9.2 6.9 17.6 15.6 22.6l382.1 220.6c4.9 2.8 10.2 4.2 15.4 4.3h1.4c5.2-0.1 10.5-1.5 15.4-4.3l380-219.4c2.6-1.3 5-2.9 7.2-4.8 0.1-0.1 0.2-0.2 0.4-0.3l0.1-0.1c10.7-10 13.7-26.5 6-39.8zM512 507.1L318.3 395.3c-3.8-3.6-8.3-6.2-13.2-7.6l-110.9-64 318.8-184 317.8 183.5L715.2 390c-2.2 1-4.3 2.2-6.3 3.6L512 507.1z m-16.1 64.7c4.9 2.8 10.2 4.2 15.4 4.3h1.4c5.2-0.1 10.5-1.5 15.4-4.3l200-115.5 102.1 58.9L512 698.9 317.7 586.7c-3.4-3.1-7.4-5.3-11.6-6.7l-112.8-65.1L295.4 456l200.5 115.8z m0 191.7c4.9 2.8 10.2 4.2 15.4 4.3h1.4c5.2-0.1 10.5-1.5 15.4-4.3l199.8-115.4 102.2 59-317.9 183.5-318.7-184 102-58.9 200.4 115.8z" fill="" /></svg>